<svg width="334" height="260" viewBox="0 0 334 260" fill="none" xmlns="http://www.w3.org/2000/svg">
<path d="M203.649 21.1965L174.641 57.0827L169.932 51.2569L210.96 0.5L210.968 0.506639L210.864 158.518H232.822L232.926 74.2573L218.288 56.1473V44.4957L240.145 71.5366L240.141 71.5397L240.246 71.6688L240.141 165.85H203.545L203.649 21.1965Z" fill="white"/>
<path d="M159.054 64.7146L163.763 70.5404L159.733 75.5267L159.628 158.518H174.267L174.371 75.5626L130.455 21.2325L130.351 165.85H93.7544V158.518L94.0051 71.6688L94.0696 71.5889L94.0051 71.5366L115.863 44.4957V56.1473L101.324 74.1332L101.22 158.518H123.032L123.136 0.508286L130.455 9.56331V9.58086L181.691 72.966L181.587 165.85H152.309L152.413 72.9301L159.054 64.7146Z" fill="white"/>
<path d="M41.8583 231.296V192.585L24.7556 222.656H21.8275L4.65832 192.585V231.296H0V183.745H4.79141L23.225 216.294L41.7917 183.745H46.5166V231.296H41.8583Z" fill="white"/>
<path d="M53.6654 207.185C53.6654 204.283 54.1534 201.448 55.1294 198.68C56.1498 195.867 57.6139 193.322 59.5215 191.045C61.4292 188.723 63.7806 186.892 66.5756 185.553C69.3706 184.169 72.5426 183.477 76.0918 183.477C80.3065 183.477 83.9001 184.459 86.8725 186.424C89.8893 188.343 92.1076 190.821 93.5273 193.858L89.8671 196.135C88.8468 194.036 87.5602 192.384 86.0074 191.179C84.4546 189.928 82.7909 189.035 81.0163 188.5C79.2861 187.964 77.5559 187.696 75.8257 187.696C72.9863 187.696 70.4797 188.276 68.3058 189.437C66.1319 190.554 64.2908 192.072 62.7824 193.992C61.3183 195.867 60.2092 197.988 59.455 200.354C58.7008 202.676 58.3237 205.042 58.3237 207.453C58.3237 210.088 58.7673 212.61 59.6546 215.021C60.5419 217.432 61.7842 219.576 63.3813 221.451C64.9784 223.281 66.8418 224.755 68.9713 225.871C71.1451 226.943 73.4965 227.479 76.0253 227.479C77.7999 227.479 79.6189 227.166 81.4822 226.541C83.3455 225.916 85.0757 224.956 86.6729 223.661C88.3144 222.366 89.6231 220.692 90.5992 218.638L94.4589 220.647C93.4829 223.014 91.9745 225.023 89.9337 226.675C87.8929 228.327 85.6081 229.577 83.0793 230.425C80.5949 231.274 78.1548 231.698 75.7591 231.698C72.5205 231.698 69.548 231.006 66.8418 229.622C64.1355 228.193 61.7842 226.318 59.7877 223.996C57.8357 221.629 56.3273 218.995 55.2625 216.093C54.1978 213.146 53.6654 210.177 53.6654 207.185Z" fill="white"/>
<path d="M100.849 231.296V183.812H105.507V211.405L131.527 183.745H136.651L117.352 204.64L137.649 231.296H132.392L114.358 207.453L105.507 216.696V231.296H100.849Z" fill="white"/>
<path d="M146.703 192.384V231.296H142.045V183.745H145.904L176.916 223.393V183.812H181.574V231.296H177.248L146.703 192.384Z" fill="white"/>
<path d="M191.884 231.296V183.745H196.542V231.296H191.884Z" fill="white"/>
<path d="M225.791 231.631C222.641 231.631 219.713 230.961 217.007 229.622C214.301 228.238 211.949 226.385 209.953 224.063C207.956 221.741 206.404 219.151 205.295 216.294C204.23 213.436 203.697 210.489 203.697 207.453C203.697 204.239 204.23 201.202 205.295 198.345C206.404 195.443 207.934 192.875 209.886 190.643C211.838 188.41 214.145 186.647 216.807 185.352C219.469 184.057 222.375 183.41 225.525 183.41C230.183 183.41 233.976 184.37 236.905 186.29C239.833 188.209 242.051 190.71 243.559 193.791L239.966 196.202C238.457 193.255 236.439 191.089 233.91 189.705C231.381 188.321 228.564 187.629 225.458 187.629C222.841 187.629 220.467 188.187 218.338 189.303C216.253 190.42 214.456 191.915 212.948 193.791C211.439 195.666 210.286 197.787 209.487 200.153C208.733 202.52 208.356 204.975 208.356 207.52C208.356 210.199 208.799 212.744 209.687 215.155C210.574 217.522 211.838 219.643 213.48 221.518C215.121 223.348 217.007 224.8 219.136 225.871C221.31 226.898 223.639 227.412 226.124 227.412C229.008 227.412 231.736 226.697 234.309 225.268C236.882 223.795 239.345 221.54 241.696 218.504V223.46C237.215 228.907 231.914 231.631 225.791 231.631ZM240.964 211.539H230.449V207.922H244.89V231.296H240.964V211.539Z" fill="white"/>
<path d="M290.162 183.745V231.296H285.57V209.061H257.554V231.296H252.895V183.745H257.554V204.908H285.57V183.745H290.162Z" fill="white"/>
<path d="M334 187.897H317.164V231.296H312.505V187.897H295.669V183.745H334V187.897Z" fill="white"/>
<path d="M92.2525 259.5C90.9909 259.5 89.8256 259.227 88.7568 258.681C87.6879 258.135 86.7592 257.413 85.9707 256.514C85.1822 255.599 84.5689 254.577 84.1308 253.45C83.7103 252.305 83.5 251.142 83.5 249.962C83.5 248.729 83.7103 247.549 84.1308 246.422C84.5514 245.277 85.1471 244.264 85.9181 243.384C86.6891 242.485 87.6003 241.781 88.6516 241.27C89.703 240.742 90.8507 240.477 92.0948 240.477C93.9522 240.477 95.4504 240.865 96.5893 241.64C97.7458 242.397 98.6219 243.375 99.2177 244.573L98.1138 245.233C97.483 244 96.6419 243.111 95.5905 242.565C94.5567 242.001 93.3827 241.719 92.0685 241.719C90.9646 241.719 89.9658 241.957 89.0722 242.433C88.1785 242.89 87.4163 243.516 86.7855 244.308C86.1547 245.083 85.6728 245.964 85.3399 246.95C85.0069 247.937 84.8405 248.949 84.8405 249.989C84.8405 251.098 85.0332 252.146 85.4187 253.133C85.8042 254.119 86.3387 255 87.022 255.775C87.7054 256.55 88.5027 257.157 89.4139 257.598C90.325 258.038 91.2975 258.258 92.3314 258.258C93.5404 258.258 94.6794 257.968 95.7482 257.386C96.8171 256.788 97.8422 255.854 98.8234 254.586V256.092C96.9661 258.364 94.7757 259.5 92.2525 259.5ZM98.5343 251.336H94.3026V250.253H99.6908V259.368H98.5343V251.336Z" fill="white"/>
<path d="M122.519 259.368V240.609H130.273C131.079 240.609 131.806 240.777 132.455 241.111C133.121 241.446 133.69 241.895 134.163 242.459C134.654 243.005 135.031 243.621 135.293 244.308C135.574 244.995 135.714 245.7 135.714 246.422C135.714 247.355 135.53 248.227 135.162 249.038C134.794 249.848 134.277 250.526 133.611 251.072C132.963 251.618 132.201 251.953 131.325 252.076L135.977 259.368H134.426L129.905 252.287H123.86V259.368H122.519ZM123.86 251.046H130.405C131.211 251.046 131.912 250.825 132.507 250.385C133.103 249.945 133.559 249.372 133.874 248.668C134.207 247.963 134.373 247.215 134.373 246.422C134.373 245.612 134.181 244.863 133.795 244.176C133.427 243.472 132.928 242.908 132.297 242.485C131.684 242.045 130.992 241.825 130.221 241.825H123.86V251.046Z" fill="white"/>
<path d="M165.918 259.5C164.622 259.5 163.439 259.236 162.37 258.707C161.301 258.161 160.381 257.439 159.61 256.541C158.839 255.643 158.243 254.63 157.823 253.503C157.402 252.358 157.192 251.186 157.192 249.989C157.192 248.738 157.411 247.549 157.849 246.422C158.287 245.277 158.901 244.264 159.689 243.384C160.495 242.485 161.424 241.781 162.475 241.27C163.544 240.742 164.7 240.477 165.945 240.477C167.259 240.477 168.442 240.75 169.493 241.296C170.562 241.842 171.482 242.573 172.253 243.489C173.024 244.405 173.619 245.427 174.04 246.554C174.461 247.681 174.671 248.826 174.671 249.989C174.671 251.257 174.452 252.463 174.014 253.608C173.576 254.736 172.954 255.748 172.148 256.647C171.359 257.527 170.43 258.223 169.361 258.734C168.31 259.245 167.162 259.5 165.918 259.5ZM158.533 249.989C158.533 251.063 158.717 252.094 159.085 253.08C159.452 254.066 159.961 254.947 160.609 255.722C161.275 256.497 162.055 257.113 162.948 257.571C163.859 258.029 164.858 258.258 165.945 258.258C167.048 258.258 168.056 258.02 168.967 257.545C169.878 257.069 170.658 256.435 171.306 255.643C171.955 254.85 172.445 253.969 172.778 253.001C173.129 252.014 173.304 251.01 173.304 249.989C173.304 248.914 173.12 247.884 172.752 246.898C172.402 245.911 171.893 245.031 171.228 244.256C170.562 243.48 169.773 242.864 168.862 242.406C167.968 241.948 166.996 241.719 165.945 241.719C164.823 241.719 163.807 241.957 162.896 242.433C161.984 242.908 161.205 243.542 160.556 244.335C159.926 245.127 159.426 246.017 159.058 247.003C158.708 247.972 158.533 248.967 158.533 249.989Z" fill="white"/>
<path d="M204.678 259.5C203.189 259.5 201.945 259.236 200.946 258.707C199.947 258.179 199.15 257.466 198.554 256.567C197.959 255.651 197.529 254.63 197.266 253.503C197.004 252.375 196.872 251.222 196.872 250.042V240.609H198.213V250.042C198.213 251.063 198.318 252.067 198.528 253.053C198.738 254.04 199.08 254.929 199.553 255.722C200.044 256.497 200.701 257.113 201.524 257.571C202.365 258.029 203.408 258.258 204.652 258.258C205.914 258.258 206.956 258.02 207.78 257.545C208.621 257.069 209.278 256.444 209.751 255.669C210.242 254.876 210.584 253.996 210.776 253.027C210.987 252.041 211.092 251.046 211.092 250.042V240.609H212.432V250.042C212.432 251.292 212.292 252.49 212.012 253.635C211.749 254.762 211.311 255.766 210.697 256.647C210.084 257.527 209.287 258.223 208.306 258.734C207.324 259.245 206.115 259.5 204.678 259.5Z" fill="white"/>
<path d="M235.92 259.368V240.609H243.594C244.383 240.609 245.101 240.777 245.75 241.111C246.416 241.446 246.994 241.895 247.484 242.459C247.975 243.005 248.352 243.621 248.615 244.308C248.895 244.995 249.035 245.7 249.035 246.422C249.035 247.426 248.807 248.377 248.352 249.275C247.914 250.156 247.3 250.878 246.512 251.442C245.741 252.005 244.821 252.287 243.752 252.287H237.26V259.368H235.92ZM237.26 251.046H243.7C244.523 251.046 245.233 250.825 245.829 250.385C246.424 249.945 246.88 249.372 247.195 248.668C247.511 247.963 247.668 247.215 247.668 246.422C247.668 245.594 247.476 244.837 247.09 244.15C246.722 243.445 246.223 242.882 245.592 242.459C244.979 242.036 244.295 241.825 243.542 241.825H237.26V251.046Z" fill="white"/>
</svg>
